<?xml version="1.0" encoding="UTF-8"?>
<svg id="g-all_women-full-interactions-img" xmlns="http://www.w3.org/2000/svg" baseProfile="tiny" version="1.2" viewBox="0 0 700 425">
  <!-- Generator: Adobe Illustrator 29.5.0, SVG Export Plug-In . SVG Version: 2.1.0 Build 137)  -->
  <g id="repwomanarrow">
    <path d="M539.5,372.5c-8.118,2.052-36.953,8.279-67-7-15.714-7.991-25.948-18.908-31.926-26.738" fill="none" stroke="#000"/>
    <polygon points="436.187 342.988 445.989 335.811 437.5 334.5 436.187 342.988"/>
  </g>
  <g id="womanarrow">
    <path d="M206.5,28.5c8.636-3.879,35.863-14.787,70-7,30.998,7.071,50.362,25.604,58.856,35.296" fill="none" stroke="#000"/>
    <polygon points="339.436 52.276 330.16 60.121 338.719 60.835 339.436 52.276"/>
  </g>
  <path id="demwon" d="M10.072,131.794c17.873,0,17.873-12.591,35.746-12.591s17.873,13.915,35.746,13.915,17.873-8.231,35.746-8.231,17.873,2.414,35.746,2.414,17.873,7.23,35.746,7.23,17.873-49.599,35.746-49.599,17.873,8.968,35.746,8.968,17.873,14.74,35.746,14.74,17.873-4.889,35.746-4.889,17.873-74.883,35.746-74.883,17.873,77.14,35.746,77.14,17.873-1.751,35.746-1.751,17.873,2.022,35.746,2.022,17.873,24.441,35.746,24.441,17.873-8.647,35.746-8.647,17.873-24.141,35.746-24.141,17.873-2.203,35.746-2.203,17.873-28.842,35.746-28.842,17.873,7.476,35.746,7.476v68.222c-17.873,0-17.873,25.152-35.746,25.152s-17.873-9.719-35.746-9.719-17.873,8.136-35.746,8.136-17.873-2.554-35.746-2.554-17.873,11.613-35.746,11.613-17.873-6.644-35.746-6.644-17.873-4.989-35.746-4.989-17.873,7.683-35.746,7.683-17.873-59.343-35.746-59.343-17.873,51.153-35.746,51.153-17.873,4.889-35.746,4.889-17.873-26.605-35.746-26.605-17.873,11.795-35.746,11.795-17.873,22.903-35.746,22.903-17.873-4.264-35.746-4.264-17.873-5.38-35.746-5.38-17.873,8.231-35.746,8.231-17.873-10.949-35.746-10.949-17.873,3.693-35.746,3.693v-35.594Z" fill="#1f77b4"/>
  <path id="demlost" d="M10.072,167.388c17.873,0,17.873-3.693,35.746-3.693s17.873,10.949,35.746,10.949,17.873-8.231,35.746-8.231,17.873,5.38,35.746,5.38,17.873,4.264,35.746,4.264,17.873-22.903,35.746-22.903,17.873-11.795,35.746-11.795,17.873,26.605,35.746,26.605,17.873-4.889,35.746-4.889,17.873-51.153,35.746-51.153,17.873,59.343,35.746,59.343,17.873-7.683,35.746-7.683,17.873,4.989,35.746,4.989,17.873,6.644,35.746,6.644,17.873-11.613,35.746-11.613,17.873,2.554,35.746,2.554,17.873-8.136,35.746-8.136,17.873,9.719,35.746,9.719,17.873-25.152,35.746-25.152v68.222c-17.873,0-17.873,28.118-35.746,28.118s-17.873-3.786-35.746-3.786-17.873-15.594-35.746-15.594-17.873.412-35.746.412-17.873-6.184-35.746-6.184-17.873,5.22-35.746,5.22-17.873.944-35.746.944-17.873-10.114-35.746-10.114-17.873,20.744-35.746,20.744-17.873-17.069-35.746-17.069-17.873-4.01-35.746-4.01-17.873,23.82-35.746,23.82-17.873-6.002-35.746-6.002-17.873-30.488-35.746-30.488-17.873,4.635-35.746,4.635-17.873,9.45-35.746,9.45-17.873-9.566-35.746-9.566-17.873,12.781-35.746,12.781-17.873,3.693-35.746,3.693v-50.425Z" fill="#90cdf4"/>
  <path id="replost" d="M10.072,217.813c17.873,0,17.873-3.693,35.746-3.693s17.873-12.781,35.746-12.781,17.873,9.566,35.746,9.566,17.873-9.45,35.746-9.45,17.873-4.635,35.746-4.635,17.873,30.488,35.746,30.488,17.873,6.002,35.746,6.002,17.873-23.82,35.746-23.82,17.873,4.01,35.746,4.01,17.873,17.069,35.746,17.069,17.873-20.744,35.746-20.744,17.873,10.114,35.746,10.114,17.873-.944,35.746-.944,17.873-5.22,35.746-5.22,17.873,6.184,35.746,6.184,17.873-.412,35.746-.412,17.873,15.594,35.746,15.594,17.873,3.786,35.746,3.786,17.873-28.118,35.746-28.118v83.053c-17.873,0-17.873-25.273-35.746-25.273s-17.873-.82-35.746-.82-17.873,2.203-35.746,2.203-17.873-8.487-35.746-8.487-17.873-3.218-35.746-3.218-17.873,11.153-35.746,11.153-17.873.944-35.746.944-17.873-7.148-35.746-7.148-17.873,59.304-35.746,59.304-17.873-70.46-35.746-70.46-17.873-6.976-35.746-6.976-17.873,32.719-35.746,32.719-17.873-8.968-35.746-8.968-17.873-33.454-35.746-33.454-17.873,4.635-35.746,4.635-17.873.552-35.746.552-17.873-9.566-35.746-9.566-17.873,15.747-35.746,15.747-17.873-17.071-35.746-17.071v-11.865Z" fill="#feb2b2"/>
  <path id="repwon" d="M10.072,229.677c17.873,0,17.873,17.071,35.746,17.071s17.873-15.747,35.746-15.747,17.873,9.566,35.746,9.566,17.873-.552,35.746-.552,17.873-4.635,35.746-4.635,17.873,33.454,35.746,33.454,17.873,8.968,35.746,8.968,17.873-32.719,35.746-32.719,17.873,6.976,35.746,6.976,17.873,70.46,35.746,70.46,17.873-59.304,35.746-59.304,17.873,7.148,35.746,7.148,17.873-.944,35.746-.944,17.873-11.153,35.746-11.153,17.873,3.218,35.746,3.218,17.873,8.487,35.746,8.487,17.873-2.203,35.746-2.203,17.873.82,35.746.82,17.873,25.273,35.746,25.273v71.188c-17.873,0-17.873-46.036-35.746-46.036s-17.873-15.651-35.746-15.651-17.873,8.136-35.746,8.136-17.873-14.419-35.746-14.419-17.873-18.048-35.746-18.048-17.873,23.018-35.746,23.018-17.873,15.775-35.746,15.775-17.873,16.582-35.746,16.582-17.873,26.676-35.746,26.676-17.873-97.155-35.746-97.155-17.873-9.942-35.746-9.942-17.873,29.753-35.746,29.753-17.873,8.829-35.746,8.829-17.873-39.387-35.746-39.387-17.873,1.668-35.746,1.668-17.873-11.313-35.746-11.313-17.873-9.566-35.746-9.566-17.873,30.578-35.746,30.578-17.873-20.037-35.746-20.037v-14.831Z" fill="#c53030"/>
<style>
#g-all_women-full-interactions-img rect, #g-all_women-full-interactions-img circle, #g-all_women-full-interactions-img path, #g-all_women-full-interactions-img line, #g-all_women-full-interactions-img polyline, #g-all_women-full-interactions-img polygon { vector-effect: non-scaling-stroke; }
</style>
</svg>
