<?xml version="1.0" encoding="UTF-8"?>
<svg id="g-all_women-medium-interactions-img" xmlns="http://www.w3.org/2000/svg" baseProfile="tiny" version="1.2" viewBox="0 0 490 350">
  <!-- Generator: Adobe Illustrator 29.5.0, SVG Export Plug-In . SVG Version: 2.1.0 Build 137)  -->
  <path id="demwon" d="M3.476,101.689c12.484,0,12.484-11.328,24.968-11.328s12.484,12.519,24.968,12.519,12.484-7.405,24.968-7.405,12.484,2.172,24.968,2.172,12.484,6.505,24.968,6.505,12.484-44.622,24.968-44.622,12.484,8.068,24.968,8.068,12.484,13.261,24.968,13.261,12.484-4.398,24.968-4.398,12.484-67.369,24.968-67.369,12.484,69.399,24.968,69.399,12.484-1.575,24.968-1.575,12.484,1.819,24.968,1.819,12.484,21.989,24.968,21.989,12.484-7.779,24.968-7.779,12.484-21.719,24.968-21.719,12.484-1.982,24.968-1.982,12.484-25.948,24.968-25.948,12.484,6.726,24.968,6.726v61.376c-12.484,0-12.484,22.628-24.968,22.628s-12.484-8.743-24.968-8.743-12.484,7.319-24.968,7.319-12.484-2.298-24.968-2.298-12.484,10.448-24.968,10.448-12.484-5.978-24.968-5.978-12.484-4.488-24.968-4.488-12.484,6.912-24.968,6.912-12.484-53.388-24.968-53.388-12.484,46.02-24.968,46.02-12.484,4.398-24.968,4.398-12.484-23.935-24.968-23.935-12.484,10.612-24.968,10.612-12.484,20.605-24.968,20.605-12.484-3.836-24.968-3.836-12.484-4.841-24.968-4.841-12.484,7.405-24.968,7.405-12.484-9.85-24.968-9.85-12.484,3.322-24.968,3.322v-32.023Z" fill="#1f77b4"/>
  <path id="demlost" d="M3.476,133.711c12.484,0,12.484-3.322,24.968-3.322s12.484,9.85,24.968,9.85,12.484-7.405,24.968-7.405,12.484,4.841,24.968,4.841,12.484,3.836,24.968,3.836,12.484-20.605,24.968-20.605,12.484-10.612,24.968-10.612,12.484,23.935,24.968,23.935,12.484-4.398,24.968-4.398,12.484-46.02,24.968-46.02,12.484,53.388,24.968,53.388,12.484-6.912,24.968-6.912,12.484,4.488,24.968,4.488,12.484,5.978,24.968,5.978,12.484-10.448,24.968-10.448,12.484,2.298,24.968,2.298,12.484-7.319,24.968-7.319,12.484,8.743,24.968,8.743,12.484-22.628,24.968-22.628v61.376c-12.484,0-12.484,25.297-24.968,25.297s-12.484-3.406-24.968-3.406-12.484-14.029-24.968-14.029-12.484.371-24.968.371-12.484-5.563-24.968-5.563-12.484,4.697-24.968,4.697-12.484.849-24.968.849-12.484-9.099-24.968-9.099-12.484,18.662-24.968,18.662-12.484-15.356-24.968-15.356-12.484-3.607-24.968-3.607-12.484,21.43-24.968,21.43-12.484-5.4-24.968-5.4-12.484-27.429-24.968-27.429-12.484,4.17-24.968,4.17-12.484,8.502-24.968,8.502-12.484-8.606-24.968-8.606-12.484,11.498-24.968,11.498-12.484,3.322-24.968,3.322v-45.365Z" fill="#90cdf4"/>
  <path id="replost" d="M3.476,179.077c12.484,0,12.484-3.322,24.968-3.322s12.484-11.498,24.968-11.498,12.484,8.606,24.968,8.606,12.484-8.502,24.968-8.502,12.484-4.17,24.968-4.17,12.484,27.429,24.968,27.429,12.484,5.4,24.968,5.4,12.484-21.43,24.968-21.43,12.484,3.607,24.968,3.607,12.484,15.356,24.968,15.356,12.484-18.662,24.968-18.662,12.484,9.099,24.968,9.099,12.484-.849,24.968-.849,12.484-4.697,24.968-4.697,12.484,5.563,24.968,5.563,12.484-.371,24.968-.371,12.484,14.029,24.968,14.029,12.484,3.406,24.968,3.406,12.484-25.297,24.968-25.297v74.719c-12.484,0-12.484-22.737-24.968-22.737s-12.484-.738-24.968-.738-12.484,1.982-24.968,1.982-12.484-7.635-24.968-7.635-12.484-2.895-24.968-2.895-12.484,10.034-24.968,10.034-12.484.849-24.968.849-12.484-6.43-24.968-6.43-12.484,53.354-24.968,53.354-12.484-63.39-24.968-63.39-12.484-6.276-24.968-6.276-12.484,29.436-24.968,29.436-12.484-8.068-24.968-8.068-12.484-30.097-24.968-30.097-12.484,4.17-24.968,4.17-12.484.496-24.968.496-12.484-8.606-24.968-8.606-12.484,14.167-24.968,14.167-12.484-15.358-24.968-15.358v-10.674Z" fill="#feb2b2"/>
  <path id="repwon" d="M3.476,189.751c12.484,0,12.484,15.358,24.968,15.358s12.484-14.167,24.968-14.167,12.484,8.606,24.968,8.606,12.484-.496,24.968-.496,12.484-4.17,24.968-4.17,12.484,30.097,24.968,30.097,12.484,8.068,24.968,8.068,12.484-29.436,24.968-29.436,12.484,6.276,24.968,6.276,12.484,63.39,24.968,63.39,12.484-53.354,24.968-53.354,12.484,6.43,24.968,6.43,12.484-.849,24.968-.849,12.484-10.034,24.968-10.034,12.484,2.895,24.968,2.895,12.484,7.635,24.968,7.635,12.484-1.982,24.968-1.982,12.484.738,24.968.738,12.484,22.737,24.968,22.737v64.045c-12.484,0-12.484-41.417-24.968-41.417s-12.484-14.08-24.968-14.08-12.484,7.319-24.968,7.319-12.484-12.972-24.968-12.972-12.484-16.237-24.968-16.237-12.484,20.708-24.968,20.708-12.484,14.192-24.968,14.192-12.484,14.918-24.968,14.918-12.484,24-24.968,24-12.484-87.407-24.968-87.407-12.484-8.945-24.968-8.945-12.484,26.767-24.968,26.767-12.484,7.943-24.968,7.943-12.484-35.434-24.968-35.434-12.484,1.501-24.968,1.501-12.484-10.178-24.968-10.178-12.484-8.606-24.968-8.606-12.484,27.51-24.968,27.51-12.484-18.026-24.968-18.026v-13.343Z" fill="#c53030"/>
  <g id="repwomanarrow">
    <path d="M358.273,322.242c-6.888.77-27.098,2.109-47.273-10.242-10.085-6.174-16.823-13.726-21.047-19.578" fill="none" stroke="#000"/>
    <polygon points="285.416 296.492 295.464 289.665 287.027 288.055 285.416 296.492"/>
  </g>
  <g id="womanarrow">
    <path d="M124.678,23.76c11.148-3.458,28.133-7.25,48.894-6.298,24.379,1.119,43.597,8.305,55.74,14.168" fill="none" stroke="#000"/>
    <polygon points="231.294 25.848 225.849 36.708 234 34 231.294 25.848"/>
  </g>
<style>
#g-all_women-medium-interactions-img rect, #g-all_women-medium-interactions-img circle, #g-all_women-medium-interactions-img path, #g-all_women-medium-interactions-img line, #g-all_women-medium-interactions-img polyline, #g-all_women-medium-interactions-img polygon { vector-effect: non-scaling-stroke; }
</style>
</svg>
