<?xml version="1.0" encoding="UTF-8"?>
<svg id="g-all_women-mobile-interactions-img" xmlns="http://www.w3.org/2000/svg" baseProfile="tiny" version="1.2" viewBox="0 0 375 470.8">
  <!-- Generator: Adobe Illustrator 29.5.0, SVG Export Plug-In . SVG Version: 2.1.0 Build 137)  -->
  <path id="demwon" d="M265.474,10.4c0,11.833,10.703,11.833,10.703,23.667,0,11.833-11.828,11.833-11.828,23.667,0,11.833,6.997,11.833,6.997,23.667,0,11.833-2.052,11.833-2.052,23.667,0,11.833-6.146,11.833-6.146,23.667,0,11.833,42.16,11.833,42.16,23.667,0,11.833-7.623,11.833-7.623,23.667,0,11.833-12.529,11.833-12.529,23.667,0,11.833,4.156,11.833,4.156,23.667,0,11.833,63.652,11.833,63.652,23.667,0,11.833-65.571,11.833-65.571,23.667,0,11.833,1.488,11.833,1.488,23.667s-1.719,11.833-1.719,23.667c0,11.833-20.776,11.833-20.776,23.667,0,11.833,7.35,11.833,7.35,23.667,0,11.833,20.521,11.833,20.521,23.667,0,11.833,1.873,11.833,1.873,23.667s24.516,11.833,24.516,23.667-6.355,11.833-6.355,23.667h-57.991c0-11.833-21.38-11.833-21.38-23.667s8.261-11.833,8.261-23.667c0-11.833-6.916-11.833-6.916-23.667,0-11.833,2.171-11.833,2.171-23.667s-9.872-11.833-9.872-23.667,5.648-11.833,5.648-23.667c0-11.833,4.24-11.833,4.24-23.667,0-11.833-6.531-11.833-6.531-23.667,0-11.833,50.443-11.833,50.443-23.667,0-11.833-43.482-11.833-43.482-23.667s-4.156-11.833-4.156-23.667c0-11.833,22.615-11.833,22.615-23.667,0-11.833-10.026-11.833-10.026-23.667,0-11.833-19.468-11.833-19.468-23.667,0-11.833,3.624-11.833,3.624-23.667,0-11.833,4.574-11.833,4.574-23.667,0-11.833-6.997-11.833-6.997-23.667s9.307-11.833,9.307-23.667-3.139-11.833-3.139-23.667h30.256Z" fill="#1f77b4"/>
  <path id="demlost" d="M235.218,10.4c0,11.833,3.139,11.833,3.139,23.667s-9.307,11.833-9.307,23.667,6.997,11.833,6.997,23.667c0,11.833-4.574,11.833-4.574,23.667,0,11.833-3.624,11.833-3.624,23.667,0,11.833,19.468,11.833,19.468,23.667,0,11.833,10.026,11.833,10.026,23.667,0,11.833-22.615,11.833-22.615,23.667,0,11.833,4.156,11.833,4.156,23.667s43.482,11.833,43.482,23.667c0,11.833-50.443,11.833-50.443,23.667,0,11.833,6.531,11.833,6.531,23.667,0,11.833-4.24,11.833-4.24,23.667,0,11.833-5.648,11.833-5.648,23.667s9.872,11.833,9.872,23.667-2.171,11.833-2.171,23.667c0,11.833,6.916,11.833,6.916,23.667,0,11.833-8.261,11.833-8.261,23.667s21.38,11.833,21.38,23.667h-57.991c0-11.833-23.901-11.833-23.901-23.667,0-11.833,3.218-11.833,3.218-23.667,0-11.833,13.255-11.833,13.255-23.667,0-11.833-.35-11.833-.35-23.667,0-11.833,5.256-11.833,5.256-23.667,0-11.833-4.438-11.833-4.438-23.667s-.802-11.833-.802-23.667,8.597-11.833,8.597-23.667-17.633-11.833-17.633-23.667c0-11.833,14.509-11.833,14.509-23.667,0-11.833,3.408-11.833,3.408-23.667s-20.248-11.833-20.248-23.667c0-11.833,5.102-11.833,5.102-23.667,0-11.833,25.916-11.833,25.916-23.667,0-11.833-3.94-11.833-3.94-23.667,0-11.833-8.033-11.833-8.033-23.667,0-11.833,8.131-11.833,8.131-23.667,0-11.833-10.864-11.833-10.864-23.667,0-11.833-3.139-11.833-3.139-23.667h42.863Z" fill="#90cdf4"/>
  <path id="replost" d="M192.356,10.4c0,11.833,3.139,11.833,3.139,23.667,0,11.833,10.864,11.833,10.864,23.667,0,11.833-8.131,11.833-8.131,23.667,0,11.833,8.033,11.833,8.033,23.667,0,11.833,3.94,11.833,3.94,23.667,0,11.833-25.916,11.833-25.916,23.667,0,11.833-5.102,11.833-5.102,23.667,0,11.833,20.248,11.833,20.248,23.667s-3.408,11.833-3.408,23.667c0,11.833-14.509,11.833-14.509,23.667,0,11.833,17.633,11.833,17.633,23.667s-8.597,11.833-8.597,23.667.802,11.833.802,23.667,4.438,11.833,4.438,23.667c0,11.833-5.256,11.833-5.256,23.667,0,11.833.35,11.833.35,23.667,0,11.833-13.255,11.833-13.255,23.667,0,11.833-3.218,11.833-3.218,23.667,0,11.833,23.901,11.833,23.901,23.667h-70.597c0-11.833,21.483-11.833,21.483-23.667s.697-11.833.697-23.667c0-11.833-1.873-11.833-1.873-23.667,0-11.833,7.214-11.833,7.214-23.667,0-11.833,2.735-11.833,2.735-23.667,0-11.833-9.48-11.833-9.48-23.667,0-11.833-.802-11.833-.802-23.667,0-11.833,6.076-11.833,6.076-23.667s-50.41-11.833-50.41-23.667c0-11.833,59.893-11.833,59.893-23.667,0-11.833,5.93-11.833,5.93-23.667,0-11.833-27.812-11.833-27.812-23.667,0-11.833,7.623-11.833,7.623-23.667,0-11.833,28.437-11.833,28.437-23.667,0-11.833-3.94-11.833-3.94-23.667,0-11.833-.469-11.833-.469-23.667,0-11.833,8.131-11.833,8.131-23.667,0-11.833-13.385-11.833-13.385-23.667,0-11.833,14.511-11.833,14.511-23.667h10.085Z" fill="#feb2b2"/>
  <path id="repwon" d="M182.27,10.4c0,11.833-14.511,11.833-14.511,23.667,0,11.833,13.385,11.833,13.385,23.667,0,11.833-8.131,11.833-8.131,23.667,0,11.833.469,11.833.469,23.667,0,11.833,3.94,11.833,3.94,23.667,0,11.833-28.437,11.833-28.437,23.667,0,11.833-7.623,11.833-7.623,23.667,0,11.833,27.812,11.833,27.812,23.667,0,11.833-5.93,11.833-5.93,23.667,0,11.833-59.893,11.833-59.893,23.667,0,11.833,50.41,11.833,50.41,23.667s-6.076,11.833-6.076,23.667c0,11.833.802,11.833.802,23.667,0,11.833,9.48,11.833,9.48,23.667,0,11.833-2.735,11.833-2.735,23.667,0,11.833-7.214,11.833-7.214,23.667,0,11.833,1.873,11.833,1.873,23.667,0,11.833-.697,11.833-.697,23.667s-21.483,11.833-21.483,23.667h-60.512c0-11.833,39.132-11.833,39.132-23.667,0-11.833,13.304-11.833,13.304-23.667,0-11.833-6.916-11.833-6.916-23.667,0-11.833,12.256-11.833,12.256-23.667,0-11.833,15.342-11.833,15.342-23.667,0-11.833-19.566-11.833-19.566-23.667,0-11.833-13.409-11.833-13.409-23.667s-14.095-11.833-14.095-23.667-22.676-11.833-22.676-23.667,82.585-11.833,82.585-23.667c0-11.833,8.451-11.833,8.451-23.667,0-11.833-25.291-11.833-25.291-23.667,0-11.833-7.505-11.833-7.505-23.667,0-11.833,33.48-11.833,33.48-23.667s-1.418-11.833-1.418-23.667c0-11.833,9.616-11.833,9.616-23.667,0-11.833,8.131-11.833,8.131-23.667s-25.992-11.833-25.992-23.667c0-11.833,17.032-11.833,17.032-23.667h12.607Z" fill="#c53030"/>
  <g id="repwomanarrow">
    <path d="M84.627,338.9c-.739-5.727-1.133-13.287,0-22,1.436-11.047,4.808-19.966,7.937-26.355" fill="none" stroke="#000"/>
    <polygon points="86.827 288.477 97.599 294.093 95.02 285.9 86.827 288.477"/>
  </g>
  <g id="womanarrow">
    <path d="M331.546,125.284c3.267,10.567,6.85,26.667,5.95,46.345-1.05,22.942-7.749,41.061-13.267,52.584" fill="none" stroke="#000"/>
    <polygon points="330.013 226.176 319.136 220.766 321.871 228.909 330.013 226.176"/>
  </g>
<style>
#g-all_women-mobile-interactions-img rect, #g-all_women-mobile-interactions-img circle, #g-all_women-mobile-interactions-img path, #g-all_women-mobile-interactions-img line, #g-all_women-mobile-interactions-img polyline, #g-all_women-mobile-interactions-img polygon { vector-effect: non-scaling-stroke; }
</style>
</svg>
