<svg xmlns="http://www.w3.org/2000/svg" width="805" height="600"><rect width="805" height="600" x="0" y="0" fill="#FFFFFF" id="background"/><g id="viz"><g transform="translate(0,0)"><g transform="translate(10,20)"><g><path fill="#1f77b4" d="M0,206.76923076923077C10.072316282420749,206.76923076923077,10.072316282420749,175.62130177514797,20.144632564841498,175.62130177514797C30.20317002881844,175.62130177514797,30.20317002881844,183.51873767258382,40.26170749279539,183.51873767258382C50.33402377521614,183.51873767258382,50.33402377521614,183.51873767258382,60.40634005763688,183.51873767258382C70.46487752161383,183.51873767258382,70.46487752161383,171.21104536489156,80.52341498559078,171.21104536489156C90.59573126801152,171.21104536489156,90.59573126801152,177.5928117466579,100.66804755043226,177.5928117466579C110.72658501440921,177.5928117466579,110.72658501440921,122.52420467805084,120.78512247838617,122.52420467805084C130.85743876080693,122.52420467805084,130.85743876080693,165.18425430584242,140.9297550432277,165.18425430584242C150.98829250720462,165.18425430584242,150.98829250720462,146.33810045968858,161.04682997118155,146.33810045968858C171.1191462536023,146.33810045968858,171.1191462536023,144.6411307627188,181.19146253602307,144.6411307627188C191.25,144.6411307627188,191.25,51.332134674061756,201.30853746397693,51.332134674061756C211.3808537463977,51.332134674061756,211.3808537463977,114.00905775098482,221.45317002881848,114.00905775098482C231.5117074927954,114.00905775098482,231.5117074927954,128.56207230399937,241.57024495677234,128.56207230399937C251.64256123919307,128.56207230399937,251.64256123919307,122.3272544902342,261.7148775216138,122.3272544902342C271.77341498559076,122.3272544902342,271.77341498559076,165.40417756715732,281.8319524495677,165.40417756715732C291.9042687319885,165.40417756715732,291.9042687319885,174.0195621825419,301.97658501440924,174.0195621825419C312.03512247838614,174.0195621825419,312.03512247838614,113.2811006440804,322.0936599423631,113.2811006440804C332.1659762247839,113.2811006440804,332.1659762247839,133.74263910561885,342.2382925072046,133.74263910561885C352.2968299711816,133.74263910561885,352.2968299711816,65.99438735736707,362.35536743515854,65.99438735736707C372.42768371757927,65.99438735736707,372.42768371757927,96.82394995163557,382.5,96.82394995163557L382.5,294.9777961054817C372.42768371757927,294.9777961054817,372.42768371757927,358.917464280444,362.35536743515854,358.917464280444C352.2968299711816,358.917464280444,352.2968299711816,314.6657160286957,342.2382925072046,314.6657160286957C332.1659762247839,314.6657160286957,332.1659762247839,311.4349467979265,322.0936599423631,311.4349467979265C312.03512247838614,311.4349467979265,312.03512247838614,294.6349467979265,301.97658501440924,294.6349467979265C291.9042687319885,294.6349467979265,291.9042687319885,294.6349467979265,281.8319524495677,294.6349467979265C271.77341498559076,294.6349467979265,271.77341498559076,303.2503314133111,261.7148775216138,303.2503314133111C251.64256123919307,303.2503314133111,251.64256123919307,300.8697646116917,241.57024495677234,300.8697646116917C231.5117074927954,300.8697646116917,231.5117074927954,303.54751928944637,221.45317002881848,303.54751928944637C211.3808537463977,303.54751928944637,211.3808537463977,292.562903904831,201.30853746397693,292.562903904831C191.25,292.562903904831,191.25,316.9488230704111,181.19146253602307,316.9488230704111C171.1191462536023,316.9488230704111,171.1191462536023,318.6457927673809,161.04682997118155,318.6457927673809C150.98829250720462,318.6457927673809,150.98829250720462,303.03040815199626,140.9297550432277,303.03040815199626C130.85743876080693,303.03040815199626,130.85743876080693,320.67805083189705,120.78512247838617,320.67805083189705C110.72658501440921,320.67805083189705,110.72658501440921,298.20819636204254,100.66804755043226,298.20819636204254C90.59573126801152,298.20819636204254,90.59573126801152,300.4418145956608,80.52341498559078,300.4418145956608C70.46487752161383,300.4418145956608,70.46487752161383,304.13412228796847,60.40634005763688,304.13412228796847C50.33402377521614,304.13412228796847,50.33402377521614,304.13412228796847,40.26170749279539,304.13412228796847C30.20317002881844,304.13412228796847,30.20317002881844,304.8520710059172,20.144632564841498,304.8520710059172C10.072316282420749,304.8520710059172,10.072316282420749,310.1538461538462,0,310.1538461538462Z"><title>D</title></path><path fill="#ff7f0e" d="M0,310.1538461538462C10.072316282420749,310.1538461538462,10.072316282420749,304.8520710059172,20.144632564841498,304.8520710059172C30.20317002881844,304.8520710059172,30.20317002881844,304.13412228796847,40.26170749279539,304.13412228796847C50.33402377521614,304.13412228796847,50.33402377521614,304.13412228796847,60.40634005763688,304.13412228796847C70.46487752161383,304.13412228796847,70.46487752161383,300.4418145956608,80.52341498559078,300.4418145956608C90.59573126801152,300.4418145956608,90.59573126801152,298.20819636204254,100.66804755043226,298.20819636204254C110.72658501440921,298.20819636204254,110.72658501440921,320.67805083189705,120.78512247838617,320.67805083189705C130.85743876080693,320.67805083189705,130.85743876080693,303.03040815199626,140.9297550432277,303.03040815199626C150.98829250720462,303.03040815199626,150.98829250720462,318.6457927673809,161.04682997118155,318.6457927673809C171.1191462536023,318.6457927673809,171.1191462536023,316.9488230704111,181.19146253602307,316.9488230704111C191.25,316.9488230704111,191.25,292.562903904831,201.30853746397693,292.562903904831C211.3808537463977,292.562903904831,211.3808537463977,303.54751928944637,221.45317002881848,303.54751928944637C231.5117074927954,303.54751928944637,231.5117074927954,300.8697646116917,241.57024495677234,300.8697646116917C251.64256123919307,300.8697646116917,251.64256123919307,303.2503314133111,261.7148775216138,303.2503314133111C271.77341498559076,303.2503314133111,271.77341498559076,294.6349467979265,281.8319524495677,294.6349467979265C291.9042687319885,294.6349467979265,291.9042687319885,294.6349467979265,301.97658501440924,294.6349467979265C312.03512247838614,294.6349467979265,312.03512247838614,311.4349467979265,322.0936599423631,311.4349467979265C332.1659762247839,311.4349467979265,332.1659762247839,314.6657160286957,342.2382925072046,314.6657160286957C352.2968299711816,314.6657160286957,352.2968299711816,358.917464280444,362.35536743515854,358.917464280444C372.42768371757927,358.917464280444,372.42768371757927,294.9777961054817,382.5,294.9777961054817L382.5,536.2085653362509C372.42768371757927,536.2085653362509,372.42768371757927,445.0713104342902,362.35536743515854,445.0713104342902C352.2968299711816,445.0713104342902,352.2968299711816,409.43494679792656,342.2382925072046,409.43494679792656C332.1659762247839,409.43494679792656,332.1659762247839,457.89648525946495,322.0936599423631,457.89648525946495C312.03512247838614,457.89648525946495,312.03512247838614,415.25033141331113,301.97658501440924,415.25033141331113C291.9042687319885,415.25033141331113,291.9042687319885,423.8657160286957,281.8319524495677,423.8657160286957C271.77341498559076,423.8657160286957,271.77341498559076,449.7118698748496,261.7148775216138,449.7118698748496C251.64256123919307,449.7118698748496,251.64256123919307,447.3313030732302,241.57024495677234,447.3313030732302C231.5117074927954,447.3313030732302,231.5117074927954,458.6244423663694,221.45317002881848,458.6244423663694C211.3808537463977,458.6244423663694,211.3808537463977,559.639826981754,201.30853746397693,559.639826981754C191.25,559.639826981754,191.25,428.94882307041115,181.19146253602307,428.94882307041115C171.1191462536023,428.94882307041115,171.1191462536023,422.0304081519963,161.04682997118155,422.0304081519963C150.98829250720462,422.0304081519963,150.98829250720462,432.2611773827655,140.9297550432277,432.2611773827655C130.85743876080693,432.2611773827655,130.85743876080693,441.2934354472816,120.78512247838617,441.2934354472816C110.72658501440921,441.2934354472816,110.72658501440921,410.2081963620425,100.66804755043226,410.2081963620425C90.59573126801152,410.2081963620425,90.59573126801152,412.4418145956608,80.52341498559078,412.4418145956608C70.46487752161383,412.4418145956608,70.46487752161383,390.2879684418146,60.40634005763688,390.2879684418146C50.33402377521614,390.2879684418146,50.33402377521614,390.2879684418146,40.26170749279539,390.2879684418146C30.20317002881844,390.2879684418146,30.20317002881844,399.6213017751479,20.144632564841498,399.6213017751479C10.072316282420749,399.6213017751479,10.072316282420749,344.61538461538464,0,344.61538461538464Z"><title>R</title></path></g><g id="xAxis" transform="translate(0,560)" fill="none" font-size="10" font-family="sans-serif" text-anchor="middle"><path class="domain" stroke="currentColor" d="M0,0H382.5"/><g class="tick" opacity="1" transform="translate(30.20317002881844,0)"><line stroke="currentColor" y2="6"/><text fill="currentColor" y="9" dy="0.71em">1975</text></g><g class="tick" opacity="1" transform="translate(80.52341498559078,0)"><line stroke="currentColor" y2="6"/><text fill="currentColor" y="9" dy="0.71em">1980</text></g><g class="tick" opacity="1" transform="translate(130.87121757925073,0)"><line stroke="currentColor" y2="6"/><text fill="currentColor" y="9" dy="0.71em">1985</text></g><g class="tick" opacity="1" transform="translate(181.19146253602307,0)"><line stroke="currentColor" y2="6"/><text fill="currentColor" y="9" dy="0.71em">1990</text></g><g class="tick" opacity="1" transform="translate(231.5117074927954,0)"><line stroke="currentColor" y2="6"/><text fill="currentColor" y="9" dy="0.71em">1995</text></g><g class="tick" opacity="1" transform="translate(281.8319524495677,0)"><line stroke="currentColor" y2="6"/><text fill="currentColor" y="9" dy="0.71em">2000</text></g><g class="tick" opacity="1" transform="translate(332.17975504322766,0)"><line stroke="currentColor" y2="6"/><text fill="currentColor" y="9" dy="0.71em">2005</text></g><g class="tick" opacity="1" transform="translate(382.5,0)"><line stroke="currentColor" y2="6"/><text fill="currentColor" y="9" dy="0.71em">2010</text></g></g><text y="556" x="382.5" text-anchor="end" style="font-family: Arial, sans-serif; font-size: 12px; fill: rgb(123, 123, 123); font-weight: bold;">year</text><text x="4" text-anchor="start" dominant-baseline="hanging" style="font-family: Arial, sans-serif; font-size: 12px; fill: rgb(123, 123, 123); font-weight: bold;">n</text><g id="labels"><text x="362.35536743515854" y="212.4559258189055" text-anchor="middle" alignment-baseline="middle" style="font-family: Arial, sans-serif; font-size: 10px; fill: black; font-weight: bold;">D</text><text x="201.30853746397693" y="426.1013654432925" text-anchor="middle" alignment-baseline="middle" style="font-family: Arial, sans-serif; font-size: 10px; fill: black; font-weight: bold;">R</text></g></g><text x="4" y="4" style="font-family: Arial, sans-serif; font-size: 12px; fill: black; font-weight: bold; dominant-baseline: hanging;">0</text></g><g transform="translate(402.5,0)"><g transform="translate(10,20)"><g><path fill="#1f77b4" d="M0,155.0769230769231C10.072316282420749,155.0769230769231,10.072316282420749,153.95317725752506,20.144632564841498,153.95317725752506C30.20317002881844,153.95317725752506,30.20317002881844,194.01471571906353,40.26170749279539,194.01471571906353C50.33402377521614,194.01471571906353,50.33402377521614,166.5531772575251,60.40634005763688,166.5531772575251C70.46487752161383,166.5531772575251,70.46487752161383,189.5275362318841,80.52341498559078,189.5275362318841C90.59573126801152,189.5275362318841,90.59573126801152,206.42694451590773,100.66804755043226,206.42694451590773C110.72658501440921,206.42694451590773,110.72658501440921,108.0027020916653,120.78512247838617,108.0027020916653C130.85743876080693,108.0027020916653,130.85743876080693,82.15654824551142,140.9297550432277,82.15654824551142C150.98829250720462,82.15654824551142,150.98829250720462,167.55021340388254,161.04682997118155,167.55021340388254C171.1191462536023,167.55021340388254,171.1191462536023,151.3450851987543,181.19146253602307,151.3450851987543C191.25,151.3450851987543,191.25,18.456841367114247,201.30853746397693,18.456841367114247C211.3808537463977,18.456841367114247,211.3808537463977,179.4713943816673,221.45317002881848,179.4713943816673C231.5117074927954,179.4713943816673,231.5117074927954,157.56370207397498,241.57024495677234,157.56370207397498C251.64256123919307,157.56370207397498,251.64256123919307,178.02524053551343,261.7148775216138,178.02524053551343C271.77341498559076,178.02524053551343,271.77341498559076,207.3175482278211,281.8319524495677,207.3175482278211C291.9042687319885,207.3175482278211,291.9042687319885,163.12896261988067,301.97658501440924,163.12896261988067C312.03512247838614,163.12896261988067,312.03512247838614,165.5520395429576,322.0936599423631,165.5520395429576C332.1659762247839,165.5520395429576,332.1659762247839,122.92855776158109,342.2382925072046,122.92855776158109C352.2968299711816,122.92855776158109,352.2968299711816,126.1855934088606,362.35536743515854,126.1855934088606C372.42768371757927,126.1855934088606,372.42768371757927,117.2952497100063,382.5,117.2952497100063L382.5,315.44909586385245C372.42768371757927,315.44909586385245,372.42768371757927,332.95482417809137,362.35536743515854,332.95482417809137C352.2968299711816,332.95482417809137,352.2968299711816,346.92855776158103,342.2382925072046,346.92855776158103C332.1659762247839,346.92855776158103,332.1659762247839,320.62896261988067,322.0936599423631,320.62896261988067C312.03512247838614,320.62896261988067,312.03512247838614,326.82127031218835,301.97658501440924,326.82127031218835C291.9042687319885,326.82127031218835,291.9042687319885,319.3175482278211,281.8319524495677,319.3175482278211C271.77341498559076,319.3175482278211,271.77341498559076,324.4867789970519,261.7148775216138,324.4867789970519C251.64256123919307,324.4867789970519,251.64256123919307,321.25600976628266,241.57024495677234,321.25600976628266C231.5117074927954,321.25600976628266,231.5117074927954,291.47139438166727,221.45317002881848,291.47139438166727C211.3808537463977,291.47139438166727,211.3808537463977,363.0722259824989,201.30853746397693,363.0722259824989C191.25,363.0722259824989,191.25,297.80662366029276,181.19146253602307,297.80662366029276C171.1191462536023,297.80662366029276,171.1191462536023,288.1655980192671,161.04682997118155,288.1655980192671C150.98829250720462,288.1655980192671,150.98829250720462,349.2334713224345,140.9297550432277,349.2334713224345C130.85743876080693,349.2334713224345,130.85743876080693,323.3873174762807,120.78512247838617,323.3873174762807C110.72658501440921,323.3873174762807,110.72658501440921,266.73463682360006,100.66804755043226,266.73463682360006C90.59573126801152,266.73463682360006,90.59573126801152,275.6813823857303,80.52341498559078,275.6813823857303C70.46487752161383,275.6813823857303,70.46487752161383,295.7839464882943,60.40634005763688,295.7839464882943C50.33402377521614,295.7839464882943,50.33402377521614,271.5531772575251,40.26170749279539,271.5531772575251C30.20317002881844,271.5531772575251,30.20317002881844,300.41471571906357,20.144632564841498,300.41471571906357C10.072316282420749,300.41471571906357,10.072316282420749,301.53846153846155,0,301.53846153846155Z"><title>D</title></path><path fill="#ff7f0e" d="M0,301.53846153846155C10.072316282420749,301.53846153846155,10.072316282420749,300.41471571906357,20.144632564841498,300.41471571906357C30.20317002881844,300.41471571906357,30.20317002881844,271.5531772575251,40.26170749279539,271.5531772575251C50.33402377521614,271.5531772575251,50.33402377521614,295.7839464882943,60.40634005763688,295.7839464882943C70.46487752161383,295.7839464882943,70.46487752161383,275.6813823857303,80.52341498559078,275.6813823857303C90.59573126801152,275.6813823857303,90.59573126801152,266.73463682360006,100.66804755043226,266.73463682360006C110.72658501440921,266.73463682360006,110.72658501440921,323.3873174762807,120.78512247838617,323.3873174762807C130.85743876080693,323.3873174762807,130.85743876080693,349.2334713224345,140.9297550432277,349.2334713224345C150.98829250720462,349.2334713224345,150.98829250720462,288.1655980192671,161.04682997118155,288.1655980192671C171.1191462536023,288.1655980192671,171.1191462536023,297.80662366029276,181.19146253602307,297.80662366029276C191.25,297.80662366029276,191.25,363.0722259824989,201.30853746397693,363.0722259824989C211.3808537463977,363.0722259824989,211.3808537463977,291.47139438166727,221.45317002881848,291.47139438166727C231.5117074927954,291.47139438166727,231.5117074927954,321.25600976628266,241.57024495677234,321.25600976628266C251.64256123919307,321.25600976628266,251.64256123919307,324.4867789970519,261.7148775216138,324.4867789970519C271.77341498559076,324.4867789970519,271.77341498559076,319.3175482278211,281.8319524495677,319.3175482278211C291.9042687319885,319.3175482278211,291.9042687319885,326.82127031218835,301.97658501440924,326.82127031218835C312.03512247838614,326.82127031218835,312.03512247838614,320.62896261988067,322.0936599423631,320.62896261988067C332.1659762247839,320.62896261988067,332.1659762247839,346.92855776158103,342.2382925072046,346.92855776158103C352.2968299711816,346.92855776158103,352.2968299711816,332.95482417809137,362.35536743515854,332.95482417809137C372.42768371757927,332.95482417809137,372.42768371757927,315.44909586385245,382.5,315.44909586385245L382.5,522.2183266330832C372.42768371757927,522.2183266330832,372.42768371757927,479.4163626396298,362.35536743515854,479.4163626396298C352.2968299711816,479.4163626396298,352.2968299711816,450.31317314619645,342.2382925072046,450.31317314619645C332.1659762247839,450.31317314619645,332.1659762247839,441.2443472352653,322.0936599423631,441.2443472352653C312.03512247838614,441.2443472352653,312.03512247838614,430.20588569680376,301.97658501440924,430.20588569680376C291.9042687319885,430.20588569680376,291.9042687319885,379.6252405355134,281.8319524495677,379.6252405355134C271.77341498559076,379.6252405355134,271.77341498559076,419.2560097662826,261.7148775216138,419.2560097662826C251.64256123919307,419.2560097662826,251.64256123919307,459.10216361243647,241.57024495677234,459.10216361243647C231.5117074927954,459.10216361243647,231.5117074927954,498.24062515089804,221.45317002881848,498.24062515089804C211.3808537463977,498.24062515089804,211.3808537463977,475.0722259824989,201.30853746397693,475.0722259824989C191.25,475.0722259824989,191.25,332.2681621218312,181.19146253602307,332.2681621218312C171.1191462536023,332.2681621218312,171.1191462536023,314.011751865421,161.04682997118155,314.011751865421C150.98829250720462,314.011751865421,150.98829250720462,366.46424055320375,140.9297550432277,366.46424055320375C130.85743876080693,366.46424055320375,130.85743876080693,392.3103943993577,120.78512247838617,392.3103943993577C110.72658501440921,392.3103943993577,110.72658501440921,318.4269445159078,100.66804755043226,318.4269445159078C90.59573126801152,318.4269445159078,90.59573126801152,318.7583054626533,80.52341498559078,318.7583054626533C70.46487752161383,318.7583054626533,70.46487752161383,304.3993311036789,60.40634005763688,304.3993311036789C50.33402377521614,304.3993311036789,50.33402377521614,280.16856187290966,40.26170749279539,280.16856187290966C30.20317002881844,280.16856187290966,30.20317002881844,352.10702341137124,20.144632564841498,352.10702341137124C10.072316282420749,352.10702341137124,10.072316282420749,344.61538461538464,0,344.61538461538464Z"><title>R</title></path></g><g id="xAxis" transform="translate(0,560)" fill="none" font-size="10" font-family="sans-serif" text-anchor="middle"><path class="domain" stroke="currentColor" d="M0,0H382.5"/><g class="tick" opacity="1" transform="translate(30.20317002881844,0)"><line stroke="currentColor" y2="6"/><text fill="currentColor" y="9" dy="0.71em">1975</text></g><g class="tick" opacity="1" transform="translate(80.52341498559078,0)"><line stroke="currentColor" y2="6"/><text fill="currentColor" y="9" dy="0.71em">1980</text></g><g class="tick" opacity="1" transform="translate(130.87121757925073,0)"><line stroke="currentColor" y2="6"/><text fill="currentColor" y="9" dy="0.71em">1985</text></g><g class="tick" opacity="1" transform="translate(181.19146253602307,0)"><line stroke="currentColor" y2="6"/><text fill="currentColor" y="9" dy="0.71em">1990</text></g><g class="tick" opacity="1" transform="translate(231.5117074927954,0)"><line stroke="currentColor" y2="6"/><text fill="currentColor" y="9" dy="0.71em">1995</text></g><g class="tick" opacity="1" transform="translate(281.8319524495677,0)"><line stroke="currentColor" y2="6"/><text fill="currentColor" y="9" dy="0.71em">2000</text></g><g class="tick" opacity="1" transform="translate(332.17975504322766,0)"><line stroke="currentColor" y2="6"/><text fill="currentColor" y="9" dy="0.71em">2005</text></g><g class="tick" opacity="1" transform="translate(382.5,0)"><line stroke="currentColor" y2="6"/><text fill="currentColor" y="9" dy="0.71em">2010</text></g></g><text y="556" x="382.5" text-anchor="end" display="none" style="font-family: Arial, sans-serif; font-size: 12px; fill: rgb(123, 123, 123); font-weight: bold;">year</text><text x="4" text-anchor="start" dominant-baseline="hanging" display="none" style="font-family: Arial, sans-serif; font-size: 12px; fill: rgb(123, 123, 123); font-weight: bold;">n</text><g id="labels"><text x="201.30853746397693" y="190.76453367480656" text-anchor="middle" alignment-baseline="middle" style="font-family: Arial, sans-serif; font-size: 10px; fill: black; font-weight: bold;">D</text><text x="221.45317002881848" y="394.8560097662826" text-anchor="middle" alignment-baseline="middle" style="font-family: Arial, sans-serif; font-size: 10px; fill: black; font-weight: bold;">R</text></g></g><text x="4" y="4" style="font-family: Arial, sans-serif; font-size: 12px; fill: black; font-weight: bold; dominant-baseline: hanging;">1</text></g></g></svg>