<svg xmlns="http://www.w3.org/2000/svg" width="805" height="600"><rect width="805" height="600" x="0" y="0" fill="#FFFFFF" id="background"/><g id="viz"><g transform="translate(0,0)"><g transform="translate(10,20)"><g><path fill="#1f77b4" d="M0,180.9230769230769C20.67128962536023,180.9230769230769,20.67128962536023,166.24175824175825,41.34257925072046,166.24175824175825C61.985590778097986,166.24175824175825,61.985590778097986,196.07886231415645,82.62860230547551,196.07886231415645C103.29989193083574,196.07886231415645,103.29989193083574,179.60193923723335,123.97118155619596,179.60193923723335C144.6141930835735,179.60193923723335,144.6141930835735,185.51249379895074,165.25720461095102,185.51249379895074C185.92849423631122,185.51249379895074,185.92849423631122,197.19710918356614,206.59978386167145,197.19710918356614C227.24279538904898,197.19710918356614,227.24279538904898,118.73557072202766,247.88580691642653,118.73557072202766C268.5570965417868,118.73557072202766,268.5570965417868,124.32210918356608,289.228386167147,124.32210918356608C309.8713976945245,124.32210918356608,309.8713976945245,162.212219073676,330.51440922190204,162.212219073676C351.1856988472623,162.212219073676,351.1856988472623,152.36036722182416,371.8569884726225,152.36036722182416C392.5,152.36036722182416,392.5,36.514213375670224,413.1430115273775,36.514213375670224C433.81430115273776,36.514213375670224,433.81430115273776,148.71001757147448,454.485590778098,148.71001757147448C475.1286023054755,148.71001757147448,475.1286023054755,145.03053039198733,495.77161383285306,145.03053039198733C516.4429034582133,145.03053039198733,516.4429034582133,152.6668940283509,537.1141930835735,152.6668940283509C557.757204610951,152.6668940283509,557.757204610951,189.36843248988944,578.4002161383285,189.36843248988944C599.0715057636887,189.36843248988944,599.0715057636887,170.0568288393027,619.742795389049,170.0568288393027C640.3858069164265,170.0568288393027,640.3858069164265,140.7705040529779,661.0288184438041,140.7705040529779C681.7001080691643,140.7705040529779,681.7001080691643,129.2628117452856,702.3713976945245,129.2628117452856C723.014409221902,129.2628117452856,723.014409221902,95.30806061406388,743.6574207492796,95.30806061406388C764.3287103746397,95.30806061406388,764.3287103746397,106.29707160307484,785,106.29707160307484L785,304.45091775692106C764.3287103746397,304.45091775692106,764.3287103746397,345.1542144602177,743.6574207492796,345.1542144602177C723.014409221902,345.1542144602177,723.014409221902,331.7243502068241,702.3713976945245,331.7243502068241C681.7001080691643,331.7243502068241,681.7001080691643,317.38588866836255,661.0288184438041,317.38588866836255C640.3858069164265,317.38588866836255,640.3858069164265,312.2106749931488,619.742795389049,312.2106749931488C599.0715057636887,312.2106749931488,599.0715057636887,309.983817105274,578.4002161383285,309.983817105274C557.757204610951,309.983817105274,557.757204610951,316.35920172065863,537.1141930835735,316.35920172065863C516.4429034582133,316.35920172065863,516.4429034582133,313.03053039198727,495.77161383285306,313.03053039198727C475.1286023054755,313.03053039198727,475.1286023054755,299.4792483407052,454.485590778098,299.4792483407052C433.81430115273776,299.4792483407052,433.81430115273776,329.4372902987472,413.1430115273775,329.4372902987472C392.5,329.4372902987472,392.5,311.7449826064395,371.8569884726225,311.7449826064395C351.1856988472623,311.7449826064395,351.1856988472623,308.67375753521446,330.51440922190204,308.67375753521446C309.8713976945245,308.67375753521446,309.8713976945245,326.78364764510457,289.228386167147,326.78364764510457C268.5570965417868,326.78364764510457,268.5570965417868,325.5048014912584,247.88580691642653,325.5048014912584C227.24279538904898,325.5048014912584,227.24279538904898,287.65864764510457,206.59978386167145,287.65864764510457C185.92849423631122,287.65864764510457,185.92849423631122,293.2048014912584,165.25720461095102,293.2048014912584C144.6141930835735,293.2048014912584,144.6141930835735,304.5250161603103,123.97118155619596,304.5250161603103C103.29989193083574,304.5250161603103,103.29989193083574,295.1557853910796,82.62860230547551,295.1557853910796C61.985590778097986,295.1557853910796,61.985590778097986,304.0879120879121,41.34257925072046,304.0879120879121C20.67128962536023,304.0879120879121,20.67128962536023,305.84615384615387,0,305.84615384615387Z"><title>D</title></path><path fill="#ff7f0e" d="M0,305.84615384615387C20.67128962536023,305.84615384615387,20.67128962536023,304.0879120879121,41.34257925072046,304.0879120879121C61.985590778097986,304.0879120879121,61.985590778097986,295.1557853910796,82.62860230547551,295.1557853910796C103.29989193083574,295.1557853910796,103.29989193083574,304.5250161603103,123.97118155619596,304.5250161603103C144.6141930835735,304.5250161603103,144.6141930835735,293.2048014912584,165.25720461095102,293.2048014912584C185.92849423631122,293.2048014912584,185.92849423631122,287.65864764510457,206.59978386167145,287.65864764510457C227.24279538904898,287.65864764510457,227.24279538904898,325.5048014912584,247.88580691642653,325.5048014912584C268.5570965417868,325.5048014912584,268.5570965417868,326.78364764510457,289.228386167147,326.78364764510457C309.8713976945245,326.78364764510457,309.8713976945245,308.67375753521446,330.51440922190204,308.67375753521446C351.1856988472623,308.67375753521446,351.1856988472623,311.7449826064395,371.8569884726225,311.7449826064395C392.5,311.7449826064395,392.5,329.4372902987472,413.1430115273775,329.4372902987472C433.81430115273776,329.4372902987472,433.81430115273776,299.4792483407052,454.485590778098,299.4792483407052C475.1286023054755,299.4792483407052,475.1286023054755,313.03053039198727,495.77161383285306,313.03053039198727C516.4429034582133,313.03053039198727,516.4429034582133,316.35920172065863,537.1141930835735,316.35920172065863C557.757204610951,316.35920172065863,557.757204610951,309.983817105274,578.4002161383285,309.983817105274C599.0715057636887,309.983817105274,599.0715057636887,312.2106749931488,619.742795389049,312.2106749931488C640.3858069164265,312.2106749931488,640.3858069164265,317.38588866836255,661.0288184438041,317.38588866836255C681.7001080691643,317.38588866836255,681.7001080691643,331.7243502068241,702.3713976945245,331.7243502068241C723.014409221902,331.7243502068241,723.014409221902,345.1542144602177,743.6574207492796,345.1542144602177C764.3287103746397,345.1542144602177,764.3287103746397,304.45091775692106,785,304.45091775692106L785,528.450917756921C764.3287103746397,528.450917756921,764.3287103746397,461.46190676791,743.6574207492796,461.46190676791C723.014409221902,461.46190676791,723.014409221902,430.80127328374715,702.3713976945245,430.80127328374715C681.7001080691643,430.80127328374715,681.7001080691643,450.9243502068241,661.0288184438041,450.9243502068241C640.3858069164265,450.9243502068241,640.3858069164265,424.21067499314887,619.742795389049,424.21067499314887C599.0715057636887,424.21067499314887,599.0715057636887,404.7530478745047,578.4002161383285,404.7530478745047C557.757204610951,404.7530478745047,557.757204610951,436.9745863360432,537.1141930835735,436.9745863360432C516.4429034582133,436.9745863360432,516.4429034582133,455.1843765458334,495.77161383285306,455.1843765458334C475.1286023054755,455.1843765458334,475.1286023054755,480.4023252637822,454.485590778098,480.4023252637822C433.81430115273776,480.4023252637822,433.81430115273776,518.9757518372087,413.1430115273775,518.9757518372087C392.5,518.9757518372087,392.5,384.97575183720875,371.8569884726225,384.97575183720875C351.1856988472623,384.97575183720875,351.1856988472623,373.2891421505991,330.51440922190204,373.2891421505991C309.8713976945245,373.2891421505991,309.8713976945245,400.0144168758738,289.228386167147,400.0144168758738C268.5570965417868,400.0144168758738,268.5570965417868,420.2740322604892,247.88580691642653,420.2740322604892C227.24279538904898,420.2740322604892,227.24279538904898,369.5048014912584,206.59978386167145,369.5048014912584C185.92849423631122,369.5048014912584,185.92849423631122,370.74326302971997,165.25720461095102,370.74326302971997C144.6141930835735,370.74326302971997,144.6141930835735,351.9096315449257,123.97118155619596,351.9096315449257C103.29989193083574,351.9096315449257,103.29989193083574,342.5404007756949,82.62860230547551,342.5404007756949C61.985590778097986,342.5404007756949,61.985590778097986,377.31868131868134,41.34257925072046,377.31868131868134C20.67128962536023,377.31868131868134,20.67128962536023,344.61538461538464,0,344.61538461538464Z"><title>R</title></path></g><g id="xAxis" transform="translate(0,560)" fill="none" font-size="10" font-family="sans-serif" text-anchor="middle"><path class="domain" stroke="currentColor" d="M0,0H785"/><g class="tick" opacity="1" transform="translate(61.98559077809798,0)"><line stroke="currentColor" y2="6"/><text fill="currentColor" y="9" dy="0.71em">1975</text></g><g class="tick" opacity="1" transform="translate(165.25720461095102,0)"><line stroke="currentColor" y2="6"/><text fill="currentColor" y="9" dy="0.71em">1980</text></g><g class="tick" opacity="1" transform="translate(268.58537463976944,0)"><line stroke="currentColor" y2="6"/><text fill="currentColor" y="9" dy="0.71em">1985</text></g><g class="tick" opacity="1" transform="translate(371.8569884726225,0)"><line stroke="currentColor" y2="6"/><text fill="currentColor" y="9" dy="0.71em">1990</text></g><g class="tick" opacity="1" transform="translate(475.1286023054755,0)"><line stroke="currentColor" y2="6"/><text fill="currentColor" y="9" dy="0.71em">1995</text></g><g class="tick" opacity="1" transform="translate(578.4002161383285,0)"><line stroke="currentColor" y2="6"/><text fill="currentColor" y="9" dy="0.71em">2000</text></g><g class="tick" opacity="1" transform="translate(681.7283861671469,0)"><line stroke="currentColor" y2="6"/><text fill="currentColor" y="9" dy="0.71em">2005</text></g><g class="tick" opacity="1" transform="translate(785,0)"><line stroke="currentColor" y2="6"/><text fill="currentColor" y="9" dy="0.71em">2010</text></g></g><text y="556" x="785" text-anchor="end" style="font-family: Arial, sans-serif; font-size: 12px; fill: rgb(123, 123, 123); font-weight: bold;">year</text><text x="4" text-anchor="start" dominant-baseline="hanging" style="font-family: Arial, sans-serif; font-size: 12px; fill: rgb(123, 123, 123); font-weight: bold;">n</text><g id="labels"><text x="413.1430115273775" y="182.97575183720872" text-anchor="middle" alignment-baseline="middle" style="font-family: Arial, sans-serif; font-size: 10px; fill: black; font-weight: bold;">D</text><text x="785" y="416.450917756921" text-anchor="end" alignment-baseline="middle" style="font-family: Arial, sans-serif; font-size: 10px; fill: black; font-weight: bold;">R</text></g></g><text x="4" y="4" style="font-family: Arial, sans-serif; font-size: 12px; fill: black; font-weight: bold; dominant-baseline: hanging;"/></g></g></svg>