<svg xmlns="http://www.w3.org/2000/svg" width="805" height="600"><rect width="805" height="600" x="0" y="0" fill="#FFFFFF" id="background"/><g id="viz"><g transform="translate(0,0)"><g transform="translate(10,20)"><g><path fill="#1f77b4" d="M0,180.9230769230769C20.657894736842103,180.9230769230769,20.657894736842103,162.63736263736266,41.315789473684205,162.63736263736266C61.97368421052631,162.63736263736266,61.97368421052631,182.84550743374274,82.63157894736841,182.84550743374274C103.28947368421052,182.84550743374274,103.28947368421052,170.8916612798966,123.94736842105263,170.8916612798966C144.60526315789474,170.8916612798966,144.60526315789474,174.39792246057638,165.26315789473682,174.39792246057638C185.92105263157893,174.39792246057638,185.92105263157893,184.8979224605764,206.57894736842104,184.8979224605764C227.23684210526315,184.8979224605764,227.23684210526315,112.8671532298071,247.89473684210526,112.8671532298071C268.5526315789474,112.8671532298071,268.5526315789474,125.89119169134561,289.2105263157895,125.89119169134561C309.86842105263156,125.89119169134561,309.86842105263156,147.29778509793897,330.52631578947364,147.29778509793897C351.1842105263157,147.29778509793897,351.1842105263157,140.1980699982239,371.84210526315786,140.1980699982239C392.5,140.1980699982239,392.5,31.448069998223893,413.1578947368421,31.448069998223893C433.8157894736842,31.448069998223893,433.8157894736842,143.47604202619587,454.47368421052636,143.47604202619587C475.13157894736844,143.47604202619587,475.13157894736844,140.93330698346085,495.7894736842105,140.93330698346085C516.4473684210527,140.93330698346085,516.4473684210527,143.8703699205238,537.1052631578948,143.8703699205238C557.7631578947369,143.8703699205238,557.7631578947369,179.36575453590842,578.421052631579,179.36575453590842C599.078947368421,179.36575453590842,599.078947368421,166.80773628297487,619.7368421052631,166.80773628297487C640.3947368421052,166.80773628297487,640.3947368421052,131.74790722314586,661.0526315789473,131.74790722314586C681.7105263157894,131.74790722314586,681.7105263157894,128.54790722314584,702.3684210526316,128.54790722314584C723.0263157894736,128.54790722314584,723.0263157894736,86.6619343724671,743.6842105263157,86.6619343724671C764.3421052631579,86.6619343724671,764.3421052631579,97.51907722960996,785,97.51907722960996L785,196.596000306533C764.3421052631579,196.596000306533,764.3421052631579,233.12347283400555,743.6842105263157,233.12347283400555C723.0263157894736,233.12347283400555,723.0263157894736,219.00944568468427,702.3684210526316,219.00944568468427C681.7105263157894,219.00944568468427,681.7105263157894,230.8248303000689,661.0526315789473,230.8248303000689C640.3947368421052,230.8248303000689,640.3947368421052,227.1154285906672,619.7368421052631,227.1154285906672C599.078947368421,227.1154285906672,599.078947368421,243.981139151293,578.421052631579,243.981139151293C557.7631578947369,243.981139151293,557.7631578947369,234.33190838206227,537.1052631578948,234.33190838206227C516.4473684210527,234.33190838206227,516.4473684210527,227.08715313730698,495.7894736842105,227.08715313730698C475.13157894736844,227.08715313730698,475.13157894736844,238.24527279542662,454.47368421052636,238.24527279542662C433.8157894736842,238.24527279542662,433.8157894736842,152.0634546136085,413.1578947368421,152.0634546136085C392.5,152.0634546136085,392.5,226.35191615207006,371.84210526315786,226.35191615207006C351.1842105263157,226.35191615207006,351.1842105263157,233.45163125178513,330.52631578947364,233.45163125178513C309.86842105263156,233.45163125178513,309.86842105263156,194.81426861442253,289.2105263157895,194.81426861442253C268.5526315789474,194.81426861442253,268.5526315789474,211.9440763067302,247.89473684210526,211.9440763067302C227.23684210526315,211.9440763067302,227.23684210526315,245.20561476826867,206.57894736842104,245.20561476826867C185.92105263157893,245.20561476826867,185.92105263157893,239.01330707596102,165.26315789473682,239.01330707596102C144.60526315789474,239.01330707596102,144.60526315789474,231.1993535875889,123.94736842105263,231.1993535875889C103.28947368421052,231.1993535875889,103.28947368421052,243.153199741435,82.63157894736841,243.153199741435C61.97368421052631,243.153199741435,61.97368421052631,227.2527472527472,41.315789473684205,227.2527472527472C20.657894736842103,227.2527472527472,20.657894736842103,232.61538461538458,0,232.61538461538458Z"><title>D 0</title></path><path fill="#ff7f0e" d="M0,232.61538461538458C20.657894736842103,232.61538461538458,20.657894736842103,227.2527472527472,41.315789473684205,227.2527472527472C61.97368421052631,227.2527472527472,61.97368421052631,243.153199741435,82.63157894736841,243.153199741435C103.28947368421052,243.153199741435,103.28947368421052,231.1993535875889,123.94736842105263,231.1993535875889C144.60526315789474,231.1993535875889,144.60526315789474,239.01330707596102,165.26315789473682,239.01330707596102C185.92105263157893,239.01330707596102,185.92105263157893,245.20561476826867,206.57894736842104,245.20561476826867C227.23684210526315,245.20561476826867,227.23684210526315,211.9440763067302,247.89473684210526,211.9440763067302C268.5526315789474,211.9440763067302,268.5526315789474,194.81426861442253,289.2105263157895,194.81426861442253C309.86842105263156,194.81426861442253,309.86842105263156,233.45163125178513,330.52631578947364,233.45163125178513C351.1842105263157,233.45163125178513,351.1842105263157,226.35191615207006,371.84210526315786,226.35191615207006C392.5,226.35191615207006,392.5,152.0634546136085,413.1578947368421,152.0634546136085C433.8157894736842,152.0634546136085,433.8157894736842,238.24527279542662,454.47368421052636,238.24527279542662C475.13157894736844,238.24527279542662,475.13157894736844,227.08715313730698,495.7894736842105,227.08715313730698C516.4473684210527,227.08715313730698,516.4473684210527,234.33190838206227,537.1052631578948,234.33190838206227C557.7631578947369,234.33190838206227,557.7631578947369,243.981139151293,578.421052631579,243.981139151293C599.078947368421,243.981139151293,599.078947368421,227.1154285906672,619.7368421052631,227.1154285906672C640.3947368421052,227.1154285906672,640.3947368421052,230.8248303000689,661.0526315789473,230.8248303000689C681.7105263157894,230.8248303000689,681.7105263157894,219.00944568468427,702.3684210526316,219.00944568468427C723.0263157894736,219.00944568468427,723.0263157894736,233.12347283400555,743.6842105263157,233.12347283400555C764.3421052631579,233.12347283400555,764.3421052631579,196.596000306533,785,196.596000306533L785,295.6729233834561C764.3421052631579,295.6729233834561,764.3421052631579,336.50808821862097,743.6842105263157,336.50808821862097C723.0263157894736,336.50808821862097,723.0263157894736,331.0094456846843,702.3684210526316,331.0094456846843C681.7105263157894,331.0094456846843,681.7105263157894,308.3632918385305,661.0526315789473,308.3632918385305C640.3947368421052,308.3632918385305,640.3947368421052,308.96158243682106,619.7368421052631,308.96158243682106C599.078947368421,308.96158243682106,599.078947368421,299.981139151293,578.421052631579,299.981139151293C557.7631578947369,299.981139151293,557.7631578947369,307.56267761283146,537.1052631578948,307.56267761283146C516.4473684210527,307.56267761283146,516.4473684210527,308.93330698346085,495.7894736842105,308.93330698346085C475.13157894736844,308.93330698346085,475.13157894736844,294.2452727954267,454.47368421052636,294.2452727954267C433.8157894736842,294.2452727954267,433.8157894736842,324.37114692130075,413.1578947368421,324.37114692130075C392.5,324.37114692130075,392.5,299.5826853828393,371.84210526315786,299.5826853828393C351.1842105263157,299.5826853828393,351.1842105263157,293.7593235594775,330.52631578947364,293.7593235594775C309.86842105263156,293.7593235594775,309.86842105263156,328.3527301528841,289.2105263157895,328.3527301528841C268.5526315789474,328.3527301528841,268.5526315789474,319.6363839990379,247.89473684210526,319.6363839990379C227.23684210526315,319.6363839990379,227.23684210526315,275.35946092211486,206.57894736842104,275.35946092211486C185.92105263157893,275.35946092211486,185.92105263157893,282.0902301528841,165.26315789473682,282.0902301528841C144.60526315789474,282.0902301528841,144.60526315789474,295.8147382029735,123.94736842105263,295.8147382029735C103.28947368421052,295.8147382029735,103.28947368421052,281.9224305106658,82.63157894736841,281.9224305106658C61.97368421052631,281.9224305106658,61.97368421052631,300.4835164835165,41.315789473684205,300.4835164835165C20.657894736842103,300.4835164835165,20.657894736842103,305.84615384615387,0,305.84615384615387Z"><title>D 1</title></path><path fill="#2ca02c" d="M0,305.84615384615387C20.657894736842103,305.84615384615387,20.657894736842103,300.4835164835165,41.315789473684205,300.4835164835165C61.97368421052631,300.4835164835165,61.97368421052631,281.9224305106658,82.63157894736841,281.9224305106658C103.28947368421052,281.9224305106658,103.28947368421052,295.8147382029735,123.94736842105263,295.8147382029735C144.60526315789474,295.8147382029735,144.60526315789474,282.0902301528841,165.26315789473682,282.0902301528841C185.92105263157893,282.0902301528841,185.92105263157893,275.35946092211486,206.57894736842104,275.35946092211486C227.23684210526315,275.35946092211486,227.23684210526315,319.6363839990379,247.89473684210526,319.6363839990379C268.5526315789474,319.6363839990379,268.5526315789474,328.3527301528841,289.2105263157895,328.3527301528841C309.86842105263156,328.3527301528841,309.86842105263156,293.7593235594775,330.52631578947364,293.7593235594775C351.1842105263157,293.7593235594775,351.1842105263157,299.5826853828393,371.84210526315786,299.5826853828393C392.5,299.5826853828393,392.5,324.37114692130075,413.1578947368421,324.37114692130075C433.8157894736842,324.37114692130075,433.8157894736842,294.2452727954267,454.47368421052636,294.2452727954267C475.13157894736844,294.2452727954267,475.13157894736844,308.93330698346085,495.7894736842105,308.93330698346085C516.4473684210527,308.93330698346085,516.4473684210527,307.56267761283146,537.1052631578948,307.56267761283146C557.7631578947369,307.56267761283146,557.7631578947369,299.981139151293,578.421052631579,299.981139151293C599.078947368421,299.981139151293,599.078947368421,308.96158243682106,619.7368421052631,308.96158243682106C640.3947368421052,308.96158243682106,640.3947368421052,308.3632918385305,661.0526315789473,308.3632918385305C681.7105263157894,308.3632918385305,681.7105263157894,331.0094456846843,702.3684210526316,331.0094456846843C723.0263157894736,331.0094456846843,723.0263157894736,336.50808821862097,743.6842105263157,336.50808821862097C764.3421052631579,336.50808821862097,764.3421052631579,295.6729233834561,785,295.6729233834561L785,416.2883079988407C764.3421052631579,416.2883079988407,764.3421052631579,379.58501129554406,743.6842105263157,379.58501129554406C723.0263157894736,379.58501129554406,723.0263157894736,378.39406106929965,702.3684210526316,378.39406106929965C681.7105263157894,378.39406106929965,681.7105263157894,381.5940610692997,661.0526315789473,381.5940610692997C640.3947368421052,381.5940610692997,640.3947368421052,369.2692747445133,619.7368421052631,369.2692747445133C599.078947368421,369.2692747445133,599.078947368421,364.5965237666776,578.421052631579,364.5965237666776C557.7631578947369,364.5965237666776,557.7631578947369,380.7934468436007,537.1052631578948,380.7934468436007C516.4473684210527,380.7934468436007,516.4473684210527,382.1640762142301,495.7894736842105,382.1640762142301C475.13157894736844,382.1640762142301,475.13157894736844,371.7837343338882,454.47368421052636,371.7837343338882C433.8157894736842,371.7837343338882,433.8157894736842,457.90960845976235,413.1578947368421,457.90960845976235C392.5,457.90960845976235,392.5,355.58268538283926,371.84210526315786,355.58268538283926C351.1842105263157,355.58268538283926,351.1842105263157,345.45163125178516,330.52631578947364,345.45163125178516C309.86842105263156,345.45163125178516,309.86842105263156,392.96811476826866,289.2105263157895,392.96811476826866C268.5526315789474,392.96811476826866,268.5526315789474,379.94407630673015,247.89473684210526,379.94407630673015C227.23684210526315,379.94407630673015,227.23684210526315,331.35946092211486,206.57894736842104,331.35946092211486C185.92105263157893,331.35946092211486,185.92105263157893,338.09023015288403,165.26315789473682,338.09023015288403C144.60526315789474,338.09023015288403,144.60526315789474,338.89166127989654,123.94736842105263,338.89166127989654C103.28947368421052,338.89166127989654,103.28947368421052,324.9993535875889,82.63157894736841,324.9993535875889C61.97368421052631,324.9993535875889,61.97368421052631,347.86813186813185,41.315789473684205,347.86813186813185C20.657894736842103,347.86813186813185,20.657894736842103,323.07692307692304,0,323.07692307692304Z"><title>R 0</title></path><path fill="#d62728" d="M0,323.07692307692304C20.657894736842103,323.07692307692304,20.657894736842103,347.86813186813185,41.315789473684205,347.86813186813185C61.97368421052631,347.86813186813185,61.97368421052631,324.9993535875889,82.63157894736841,324.9993535875889C103.28947368421052,324.9993535875889,103.28947368421052,338.89166127989654,123.94736842105263,338.89166127989654C144.60526315789474,338.89166127989654,144.60526315789474,338.09023015288403,165.26315789473682,338.09023015288403C185.92105263157893,338.09023015288403,185.92105263157893,331.35946092211486,206.57894736842104,331.35946092211486C227.23684210526315,331.35946092211486,227.23684210526315,379.94407630673015,247.89473684210526,379.94407630673015C268.5526315789474,379.94407630673015,268.5526315789474,392.96811476826866,289.2105263157895,392.96811476826866C309.86842105263156,392.96811476826866,309.86842105263156,345.45163125178516,330.52631578947364,345.45163125178516C351.1842105263157,345.45163125178516,351.1842105263157,355.58268538283926,371.84210526315786,355.58268538283926C392.5,355.58268538283926,392.5,457.90960845976235,413.1578947368421,457.90960845976235C433.8157894736842,457.90960845976235,433.8157894736842,371.7837343338882,454.47368421052636,371.7837343338882C475.13157894736844,371.7837343338882,475.13157894736844,382.1640762142301,495.7894736842105,382.1640762142301C516.4473684210527,382.1640762142301,516.4473684210527,380.7934468436007,537.1052631578948,380.7934468436007C557.7631578947369,380.7934468436007,557.7631578947369,364.5965237666776,578.421052631579,364.5965237666776C599.078947368421,364.5965237666776,599.078947368421,369.2692747445133,619.7368421052631,369.2692747445133C640.3947368421052,369.2692747445133,640.3947368421052,381.5940610692997,661.0526315789473,381.5940610692997C681.7105263157894,381.5940610692997,681.7105263157894,378.39406106929965,702.3684210526316,378.39406106929965C723.0263157894736,378.39406106929965,723.0263157894736,379.58501129554406,743.6842105263157,379.58501129554406C764.3421052631579,379.58501129554406,764.3421052631579,416.2883079988407,785,416.2883079988407L785,519.6729233834561C764.3421052631579,519.6729233834561,764.3421052631579,452.8157805263133,743.6842105263157,452.8157805263133C723.0263157894736,452.8157805263133,723.0263157894736,430.08636876160733,702.3684210526316,430.08636876160733C681.7105263157894,430.08636876160733,681.7105263157894,441.90175337699196,661.0526315789473,441.90175337699196C640.3947368421052,441.90175337699196,640.3947368421052,420.96158243682106,619.7368421052631,420.96158243682106C599.078947368421,420.96158243682106,599.078947368421,394.7503699205238,578.421052631579,394.7503699205238C557.7631578947369,394.7503699205238,557.7631578947369,428.1780622282161,537.1052631578948,428.1780622282161C516.4473684210527,428.1780622282161,516.4473684210527,451.087153137307,495.7894736842105,451.087153137307C475.13157894736844,451.087153137307,475.13157894736844,475.1683497185036,454.47368421052636,475.1683497185036C433.8157894736842,475.1683497185036,433.8157894736842,513.9096084597624,413.1578947368421,513.9096084597624C392.5,513.9096084597624,392.5,372.81345461360854,371.84210526315786,372.81345461360854C351.1842105263157,372.81345461360854,351.1842105263157,358.3747081748621,330.52631578947364,358.3747081748621C309.86842105263156,358.3747081748621,309.86842105263156,401.5834993836533,289.2105263157895,401.5834993836533C268.5526315789474,401.5834993836533,268.5526315789474,414.4056147682686,247.89473684210526,414.4056147682686C227.23684210526315,414.4056147682686,227.23684210526315,357.2056147682687,206.57894736842104,357.2056147682687C185.92105263157893,357.2056147682687,185.92105263157893,359.62869169134564,165.26315789473682,359.62869169134564C144.60526315789474,359.62869169134564,144.60526315789474,343.19935358758886,123.94736842105263,343.19935358758886C103.28947368421052,343.19935358758886,103.28947368421052,329.30704589528125,82.63157894736841,329.30704589528125C61.97368421052631,329.30704589528125,61.97368421052631,373.7142857142857,41.315789473684205,373.7142857142857C20.657894736842103,373.7142857142857,20.657894736842103,344.61538461538464,0,344.61538461538464Z"><title>R 1</title></path></g><g id="xAxis" transform="translate(0,560)" fill="none" font-size="10" font-family="sans-serif" text-anchor="middle"><path class="domain" stroke="currentColor" d="M0,0H785"/><g class="tick" opacity="1" transform="translate(61.973684210526315,0)"><line stroke="currentColor" y2="6"/><text fill="currentColor" y="9" dy="0.71em">1,975</text></g><g class="tick" opacity="1" transform="translate(165.26315789473682,0)"><line stroke="currentColor" y2="6"/><text fill="currentColor" y="9" dy="0.71em">1,980</text></g><g class="tick" opacity="1" transform="translate(268.5526315789474,0)"><line stroke="currentColor" y2="6"/><text fill="currentColor" y="9" dy="0.71em">1,985</text></g><g class="tick" opacity="1" transform="translate(371.84210526315786,0)"><line stroke="currentColor" y2="6"/><text fill="currentColor" y="9" dy="0.71em">1,990</text></g><g class="tick" opacity="1" transform="translate(475.13157894736844,0)"><line stroke="currentColor" y2="6"/><text fill="currentColor" y="9" dy="0.71em">1,995</text></g><g class="tick" opacity="1" transform="translate(578.421052631579,0)"><line stroke="currentColor" y2="6"/><text fill="currentColor" y="9" dy="0.71em">2,000</text></g><g class="tick" opacity="1" transform="translate(681.7105263157895,0)"><line stroke="currentColor" y2="6"/><text fill="currentColor" y="9" dy="0.71em">2,005</text></g><g class="tick" opacity="1" transform="translate(785,0)"><line stroke="currentColor" y2="6"/><text fill="currentColor" y="9" dy="0.71em">2,010</text></g></g><text y="556" x="785" text-anchor="end" style="font-family: Arial, sans-serif; font-size: 12px; fill: rgb(123, 123, 123); font-weight: bold;">year</text><text x="4" text-anchor="start" dominant-baseline="hanging" style="font-family: Arial, sans-serif; font-size: 12px; fill: rgb(123, 123, 123); font-weight: bold;">total</text><g id="labels"><text x="743.6842105263157" y="159.89270360323633" text-anchor="middle" alignment-baseline="middle" style="font-family: Arial, sans-serif; font-size: 10px; fill: black; font-weight: bold;">D 0</text><text x="413.1578947368421" y="238.21730076745467" text-anchor="middle" alignment-baseline="middle" style="font-family: Arial, sans-serif; font-size: 10px; fill: black; font-weight: bold;">D 1</text><text x="413.1578947368421" y="391.1403776905315" text-anchor="middle" alignment-baseline="middle" style="font-family: Arial, sans-serif; font-size: 10px; fill: black; font-weight: bold;">R 0</text><text x="454.47368421052636" y="423.4760420261959" text-anchor="middle" alignment-baseline="middle" style="font-family: Arial, sans-serif; font-size: 10px; fill: black; font-weight: bold;">R 1</text></g></g><text x="4" y="4" style="font-family: Arial, sans-serif; font-size: 12px; fill: black; font-weight: bold; dominant-baseline: hanging;"/></g></g></svg>